<svg width="45" height="53" viewBox="0 0 45 53" fill="none" xmlns="http://www.w3.org/2000/svg">
<path d="M37.6223 28.0086C37.5966 23.6643 39.5858 20.3902 43.603 17.976C41.3562 14.791 37.9571 13.0393 33.4764 12.7017C29.2339 12.3704 24.5923 15.1477 22.8927 15.1477C21.0966 15.1477 16.9893 12.8163 13.7575 12.8163C7.08798 12.9182 0 18.0779 0 28.5756C0 31.6777 0.572961 34.8818 1.71888 38.1814C3.25107 42.5258 8.77468 53.1699 14.5365 52.9979C17.5494 52.9279 19.6803 50.8831 23.6009 50.8831C27.4056 50.8831 29.3755 52.9979 32.7361 52.9979C38.5494 52.9151 43.5451 43.2392 45 38.8821C37.2039 35.2449 37.6223 28.2316 37.6223 28.0086V28.0086ZM30.8562 8.58032C34.1202 4.74561 33.824 1.25488 33.7275 0C30.8433 0.165619 27.5086 1.94283 25.6094 4.12772C23.5172 6.47186 22.2876 9.37019 22.5515 12.638C25.6674 12.8737 28.5129 11.2875 30.8562 8.58032V8.58032Z" fill="black"/>
</svg>
