<svg width="46" height="46" viewBox="0 0 46 46" fill="none" xmlns="http://www.w3.org/2000/svg">
<path d="M23.0017 3.83691C12.4178 3.83691 3.83691 12.4178 3.83691 23.0017C3.83691 32.5658 10.8442 40.4932 20.0078 41.9364V28.5427H15.1395V23.0017H20.0078V18.7792C20.0078 13.9722 22.8694 11.3215 27.2452 11.3215C29.342 11.3215 31.5385 11.6952 31.5385 11.6952V16.4083H29.1158C26.7392 16.4083 25.9955 17.888 25.9955 19.4041V22.9978H31.3066L30.4575 28.5389H25.9955V41.9326C35.1591 40.497 42.1664 32.5677 42.1664 23.0017C42.1664 12.4178 33.5855 3.83691 23.0017 3.83691V3.83691Z" fill="#5E5B5B"/>
</svg>
