<svg width="42" height="42" viewBox="0 0 42 42" fill="none" xmlns="http://www.w3.org/2000/svg">
<path d="M27.3008 20.9998C27.3008 22.6707 26.6371 24.2731 25.4556 25.4546C24.2741 26.6361 22.6717 27.2998 21.0008 27.2998C19.33 27.2998 17.7275 26.6361 16.546 25.4546C15.3646 24.2731 14.7008 22.6707 14.7008 20.9998C14.7008 20.6407 14.7386 20.29 14.8037 19.9498H12.6008V28.3435C12.6008 28.9273 13.0733 29.3998 13.6571 29.3998H28.3466C28.6264 29.3993 28.8945 29.2878 29.0922 29.0897C29.2898 28.8917 29.4008 28.6233 29.4008 28.3435V19.9498H27.1979C27.263 20.29 27.3008 20.6407 27.3008 20.9998V20.9998ZM21.0008 25.1998C21.5525 25.1997 22.0988 25.0909 22.6084 24.8797C23.1181 24.6684 23.5811 24.3588 23.9711 23.9686C24.3611 23.5784 24.6704 23.1152 24.8814 22.6055C25.0924 22.0957 25.201 21.5494 25.2008 20.9977C25.2007 20.4461 25.0919 19.8998 24.8806 19.3902C24.6694 18.8805 24.3598 18.4175 23.9696 18.0275C23.5794 17.6375 23.1162 17.3281 22.6065 17.1171C22.0967 16.9061 21.5504 16.7976 20.9987 16.7977C19.8845 16.798 18.8161 17.2409 18.0284 18.0289C17.2408 18.817 16.7984 19.8857 16.7987 20.9998C16.799 22.114 17.2419 23.1825 18.0299 23.9701C18.818 24.7578 19.8866 25.2001 21.0008 25.1998V25.1998ZM26.0408 16.5898H28.5587C28.726 16.5898 28.8865 16.5235 29.0049 16.4054C29.1234 16.2874 29.1903 16.1271 29.1908 15.9598V13.4419C29.1908 13.2743 29.1242 13.1135 29.0057 12.995C28.8871 12.8764 28.7264 12.8098 28.5587 12.8098H26.0408C25.8732 12.8098 25.7124 12.8764 25.5939 12.995C25.4753 13.1135 25.4087 13.2743 25.4087 13.4419V15.9598C25.4108 16.3063 25.6943 16.5898 26.0408 16.5898V16.5898ZM21.0008 0.839844C15.6541 0.839844 10.5263 2.96384 6.74555 6.74457C2.96481 10.5253 0.84082 15.6531 0.84082 20.9998C0.84082 26.3466 2.96481 31.4744 6.74555 35.2551C10.5263 39.0359 15.6541 41.1598 21.0008 41.1598C23.6483 41.1598 26.2698 40.6384 28.7157 39.6253C31.1616 38.6121 33.3841 37.1271 35.2561 35.2551C37.1281 33.3831 38.6131 31.1607 39.6262 28.7147C40.6394 26.2688 41.1608 23.6473 41.1608 20.9998C41.1608 18.3524 40.6394 15.7309 39.6262 13.2849C38.6131 10.839 37.1281 8.6166 35.2561 6.74457C33.3841 4.87254 31.1616 3.38757 28.7157 2.37443C26.2698 1.3613 23.6483 0.839844 21.0008 0.839844V0.839844ZM31.5008 29.1667C31.5008 30.4498 30.4508 31.4998 29.1677 31.4998H12.8339C11.5508 31.4998 10.5008 30.4498 10.5008 29.1667V12.8329C10.5008 11.5498 11.5508 10.4998 12.8339 10.4998H29.1677C30.4508 10.4998 31.5008 11.5498 31.5008 12.8329V29.1667V29.1667Z" fill="#5E5B5B"/>
</svg>
