<svg width="171" height="171" viewBox="0 0 171 171" fill="none" xmlns="http://www.w3.org/2000/svg">
<g clip-path="url(#clip0)">
<path d="M170.1 0H0V170.1H170.1V0Z" fill="url(#paint0_linear)"/>
<path d="M85 159.5C126.09 159.5 159.4 126.19 159.4 85.1C159.4 44.01 126.09 10.7 85 10.7C43.91 10.7 10.6 44.01 10.6 85.1C10.6 126.19 43.91 159.5 85 159.5Z" fill="url(#paint1_linear)"/>
<path d="M85 145.7C118.468 145.7 145.6 118.568 145.6 85.1C145.6 51.6315 118.468 24.5 85 24.5C51.5315 24.5 24.4 51.6315 24.4 85.1C24.4 118.568 51.5315 145.7 85 145.7Z" fill="url(#paint2_linear)"/>
<path d="M85 130.2C109.908 130.2 130.1 110.008 130.1 85.1C130.1 60.192 109.908 40 85 40C60.092 40 39.9 60.192 39.9 85.1C39.9 110.008 60.092 130.2 85 130.2Z" fill="url(#paint3_linear)"/>
<circle cx="85" cy="85" r="32" fill="url(#paint4_linear)"/>
<path d="M106.7 85.1L72.1 65.1V105L106.7 85.1Z" fill="url(#paint5_radial)"/>
<path d="M109.759 155.345C148.388 141.34 168.35 98.671 154.345 60.0414C140.34 21.4119 97.671 1.44985 59.0414 15.455C20.4119 29.4602 0.449845 72.129 14.455 110.759C28.4602 149.388 71.129 169.35 109.759 155.345Z" fill="url(#paint6_angular)" fill-opacity="0.3"/>
</g>
<defs>
<linearGradient id="paint0_linear" x1="85.05" y1="170.1" x2="85.05" y2="0" gradientUnits="userSpaceOnUse">
<stop stop-color="#D0D2D3"/>
<stop offset="1" stop-color="#E6E7E8"/>
</linearGradient>
<linearGradient id="paint1_linear" x1="85" y1="159.5" x2="85" y2="10.7" gradientUnits="userSpaceOnUse">
<stop stop-color="#F42521"/>
<stop offset="1" stop-color="#FF3B30"/>
</linearGradient>
<linearGradient id="paint2_linear" x1="85" y1="145.7" x2="85" y2="24.5" gradientUnits="userSpaceOnUse">
<stop stop-color="#F1F1F2"/>
<stop offset="1" stop-color="white"/>
</linearGradient>
<linearGradient id="paint3_linear" x1="85" y1="130.2" x2="85" y2="40" gradientUnits="userSpaceOnUse">
<stop stop-color="#F42521"/>
<stop offset="1" stop-color="#FF3B30"/>
</linearGradient>
<linearGradient id="paint4_linear" x1="85" y1="53" x2="85" y2="117" gradientUnits="userSpaceOnUse">
<stop stop-color="#007AFF"/>
<stop offset="1" stop-color="#0067DD"/>
</linearGradient>
<radialGradient id="paint5_radial" cx="0" cy="0" r="1" gradientUnits="userSpaceOnUse" gradientTransform="translate(89.3577 85.05) scale(18.6917)">
<stop stop-color="#F1F1F2"/>
<stop offset="1" stop-color="white"/>
</radialGradient>
<radialGradient id="paint6_angular" cx="0" cy="0" r="1" gradientUnits="userSpaceOnUse" gradientTransform="translate(84.4 85.4) rotate(-109.928) scale(74.4)">
<stop stop-color="#565656"/>
<stop offset="0.25" stop-color="white"/>
<stop offset="0.494792" stop-color="#565656"/>
<stop offset="0.75" stop-color="white"/>
<stop offset="1" stop-color="#565656"/>
</radialGradient>
<clipPath id="clip0">
<rect width="170.1" height="170.1" fill="white"/>
</clipPath>
</defs>
</svg>
