<svg width="33" height="32" viewBox="0 0 33 32" fill="none" xmlns="http://www.w3.org/2000/svg">
<path d="M31.5855 11.448L21.9155 10.0426L17.5927 1.27902C17.4747 1.03908 17.2804 0.844838 17.0405 0.726772C16.4387 0.429702 15.7075 0.67726 15.4066 1.27902L11.0838 10.0426L1.41383 11.448C1.14723 11.4861 0.903476 11.6117 0.716855 11.8022C0.49124 12.0341 0.366916 12.346 0.371201 12.6695C0.375486 12.993 0.508029 13.3016 0.739706 13.5275L7.73609 20.3486L6.08316 29.9806C6.0444 30.2046 6.0692 30.4351 6.15473 30.6458C6.24027 30.8565 6.38313 31.039 6.56712 31.1726C6.7511 31.3062 6.96884 31.3856 7.19565 31.4018C7.42246 31.418 7.64927 31.3702 7.85035 31.2641L16.4997 26.7166L25.149 31.2641C25.3851 31.3898 25.6593 31.4317 25.9221 31.386C26.5848 31.2717 27.0304 30.6433 26.9162 29.9806L25.2632 20.3486L32.2596 13.5275C32.4501 13.3408 32.5757 13.0971 32.6138 12.8305C32.7167 12.164 32.252 11.547 31.5855 11.448V11.448Z" fill="#FEB734"/>
</svg>
